<?xml version="1.0" encoding="utf-8"?>
<!-- Generator: Adobe Illustrator 24.3.0, SVG Export Plug-In . SVG Version: 6.00 Build 0)  -->
<svg version="1.1" id="Слой_1" xmlns="http://www.w3.org/2000/svg" xmlns:xlink="http://www.w3.org/1999/xlink" x="0px" y="0px"
	 viewBox="0 0 1000 1000" style="enable-background:new 0 0 1000 1000;" xml:space="preserve">
<g>
	<path d="M530.9,779.9l-33.5-58.2c-11.7-20.3-4.8-46.1,15.5-57.8l7.4-4.3c-0.5-4.6-0.7-9.3-0.7-14s0.2-9.3,0.7-14l-7.4-4.2
		c-9.7-5.6-16.8-14.9-19.7-25.7c-2.9-10.9-1.4-22.4,4.2-32.2l33.5-58.2c5.6-9.7,14.9-16.8,25.7-19.7c3.6-1,7.3-1.5,11-1.5
		c7.4,0,14.7,1.9,21.2,5.7l7.5,4.3c7.6-5.2,15.7-9.8,24.1-13.7v-8.9c0-0.7,0.4-1.3,0.4-2c-22.4-17-50.5-30.2-86.7-37.2v-21
		c49.9-23.9,84.7-74.4,84.7-133.4c0-81.8-66.4-148.2-148.3-148.2s-148.2,66.4-148.2,148.3c0,59.1,34.8,109.6,84.7,133.4v21
		c-168.8,32.4-169.4,195.9-169.4,290.4c0,73.8,322.8,71.7,319.2,70.8C545.7,796.8,536.5,789.6,530.9,779.9z"/>
	<path d="M817.4,645.6c0-12.4-2.2-24.2-5.4-35.7l33.3-19.2l-33.6-58.2l-32.9,19c-16.8-17.1-38.2-29.3-62.2-35.5v-38.3h-67.2V516
		c-23.9,6.2-45.4,18.4-62.2,35.5l-32.9-19l-33.6,58.2l33.3,19.2c-3.1,11.5-5.4,23.2-5.4,35.7c0,12.4,2.2,24.2,5.4,35.7l-33.3,19.2
		l33.6,58.2l32.9-19c16.8,17.1,38.2,29.3,62.2,35.5v38.3l67.2-0.1v-38.2c23.9-6.2,45.4-18.5,62.2-35.5l32.9,19l33.5-58.2l-33.2-19.2
		C815.3,669.9,817.4,658.2,817.4,645.6z M683.1,726.8c-44.8,0-81.1-36.2-81.1-81.1c0-44.7,36.2-81.1,81.1-81.1
		c44.8,0,81.1,36.3,81.1,81.1C764.1,690.5,727.9,726.8,683.1,726.8z"/>
</g>
</svg>
