<svg width="53" height="21" viewBox="0 0 53 21" fill="none" xmlns="http://www.w3.org/2000/svg">
<path d="M1.63092 20.3014V18.9797H2.8648V20.3014H3.51421V17.2781H2.8648V18.4676H1.63092V17.2781H0.981506V20.3014H1.63092Z" fill="#333333"/>
<path d="M9.22906 17.2781V18.9136C9.22906 19.4258 9.21282 19.8884 8.57964 19.8884C7.94647 19.8884 7.93023 19.4258 7.93023 18.9136V17.2781H7.26459V19.178C7.26459 19.9875 7.84906 20.3675 8.57964 20.3675C9.31023 20.3675 9.8947 19.971 9.8947 19.178V17.2781H9.22906Z" fill="#333333"/>
<path d="M15.6582 19.1944V19.8056C15.4958 19.8552 15.3335 19.9047 15.09 19.9047C14.473 19.9047 14.2133 19.4752 14.2133 18.7979C14.2133 18.1205 14.4568 17.691 15.025 17.691C15.4147 17.691 15.642 17.9388 15.642 18.2031H16.2914C16.2914 17.6084 15.7718 17.2119 14.9763 17.2119C14.3594 17.2119 13.5151 17.5918 13.5151 18.7813C13.5151 19.9874 14.3269 20.3508 15.0413 20.3508C15.6582 20.3508 16.0641 20.2186 16.2914 20.1195V18.6822H15.0575V19.1778H15.6582V19.1944Z" fill="#333333"/>
<path d="M45.7584 18.1205C45.7584 17.5092 45.1577 17.1788 44.6057 17.1788C44.0537 17.1788 43.4368 17.5258 43.4368 18.1205C43.4368 18.5501 43.7452 18.7814 44.1674 18.9135C44.2972 18.9466 44.5245 19.0292 44.6382 19.0622C45.0441 19.1779 45.1902 19.2935 45.1902 19.5413C45.1902 19.8717 44.8655 19.9874 44.6869 19.9874C44.1998 19.9874 44.0212 19.7065 44.0212 19.3596H43.3718C43.3718 20.0369 43.8589 20.4169 44.6706 20.4169C45.3038 20.4169 45.8721 20.07 45.8721 19.4587C45.8721 18.9796 45.5149 18.7153 45.0603 18.5831C44.8979 18.5335 44.7518 18.5005 44.5895 18.4509C44.2323 18.3353 44.0699 18.2362 44.0699 18.0214C44.0699 17.8066 44.2323 17.6249 44.5732 17.6249C44.9304 17.6249 45.0928 17.8562 45.0928 18.1536H45.7584V18.1205Z" fill="#333333"/>
<path d="M52.1226 18.1205C52.1226 17.5092 51.5219 17.1788 50.9699 17.1788C50.4179 17.1788 49.801 17.5258 49.801 18.1205C49.801 18.5501 50.1094 18.7814 50.5316 18.9135C50.6614 18.9466 50.8887 19.0292 51.0024 19.0622C51.4083 19.1779 51.5544 19.2935 51.5544 19.5413C51.5544 19.8717 51.2297 19.9874 51.0511 19.9874C50.564 19.9874 50.3854 19.7065 50.3854 19.3596H49.736C49.736 20.0369 50.2231 20.4169 51.0348 20.4169C51.668 20.4169 52.2363 20.07 52.2363 19.4587C52.2363 18.9796 51.8791 18.7153 51.4245 18.5831C51.2621 18.5335 51.116 18.5005 50.9537 18.4509C50.5965 18.3353 50.4341 18.2362 50.4341 18.0214C50.4341 17.8066 50.5965 17.6249 50.9374 17.6249C51.2946 17.6249 51.457 17.8562 51.457 18.1536H52.1226V18.1205Z" fill="#333333"/>
<path d="M21.4542 20.4004C22.477 20.4004 22.9316 19.7065 22.9316 18.7979C22.9316 17.8892 22.477 17.1954 21.4542 17.1954C20.4314 17.1954 19.9768 17.8892 19.9768 18.7979C19.9768 19.7065 20.4314 20.4004 21.4542 20.4004ZM21.4542 17.658C22.1036 17.658 22.2335 18.2527 22.2335 18.7814C22.2335 19.31 22.1036 19.9048 21.4542 19.9048C20.8048 19.9048 20.6749 19.31 20.6749 18.7814C20.6749 18.2692 20.8048 17.658 21.4542 17.658Z" fill="#333333"/>
<path d="M31.6987 20.3343C32.2994 20.3343 32.8514 20.037 32.8514 19.4752C32.8514 19.0127 32.4942 18.7483 32.137 18.7153C32.3805 18.6822 32.7053 18.4179 32.7053 18.0379C32.7053 17.4927 32.2994 17.2449 31.6662 17.2449H30.3511V20.3343H31.6987ZM31.0005 19.8552V18.9631H31.585C31.8773 18.9631 32.1208 19.0457 32.1208 19.3926C32.1208 19.7231 31.861 19.8387 31.585 19.8387H31.0005V19.8552ZM31.0005 18.517V17.724H31.6013C31.861 17.724 32.0234 17.9058 32.0234 18.1205C32.0234 18.3518 31.8123 18.5005 31.5688 18.5005H31.0005V18.517Z" fill="#333333"/>
<path d="M38.0953 20.4169C39.1182 20.4169 39.589 19.7065 39.589 18.7979C39.589 17.8727 39.1182 17.1788 38.0953 17.1788C37.0725 17.1788 36.6017 17.8892 36.6017 18.7979C36.6017 19.7065 37.0725 20.4169 38.0953 20.4169ZM38.0953 17.6414C38.761 17.6414 38.8909 18.2362 38.8909 18.7814C38.8909 19.3265 38.761 19.9213 38.0953 19.9213C37.4297 19.9213 37.2998 19.3265 37.2998 18.7814C37.2998 18.2527 37.4297 17.6414 38.0953 17.6414Z" fill="#333333"/>
<path d="M40.8228 10.2071C40.9527 11.76 40.2871 14.6677 35.9523 14.8494C34.0365 14.932 31.6337 14.3208 30.6758 13.8747V10.141H31.1466C31.244 10.6036 32.1532 14.0564 35.3191 14.2216C37.1537 14.3042 38.5499 13.5278 38.5824 11.9748C38.6311 10.174 36.6666 9.54625 34.897 8.83585C32.9 8.02633 30.968 7.21681 30.692 5.01954C30.3998 2.4423 32.7214 0.691089 35.4003 0.806735C36.8777 0.872818 38.3551 1.23628 39.4916 1.69886V4.85434H39.0207C38.7447 3.13617 37.7381 1.51713 35.4327 1.36844C34.0852 1.28584 32.8676 1.79798 32.8676 3.28486C32.8676 4.77173 35.3028 5.383 37.0725 6.0934C38.8584 6.82031 40.6118 7.81156 40.8228 10.2071Z" fill="#333333"/>
<path d="M52.9182 10.2071C53.048 11.76 52.3824 14.6677 48.0476 14.8494C46.1318 14.932 43.729 14.3208 42.7711 13.8747V10.141H43.2419C43.3394 10.6036 44.2485 14.0564 47.4144 14.2216C49.249 14.3042 50.6452 13.5278 50.6777 11.9748C50.7264 10.174 48.7619 9.54625 46.9923 8.83585C44.9953 8.02633 43.0634 7.21681 42.8036 5.01954C42.4951 2.4423 44.8168 0.691089 47.4956 0.806735C48.973 0.872818 50.4504 1.23628 51.5869 1.69886V4.85434H51.116C50.84 3.13617 49.8335 1.51713 47.5281 1.36844C46.1805 1.28584 44.9629 1.79798 44.9629 3.28486C44.9629 4.77173 47.3982 5.383 49.1678 6.0934C50.9537 6.82031 52.7071 7.81156 52.9182 10.2071Z" fill="#333333"/>
<path d="M14.538 7.86108C14.538 3.89608 17.6876 0.69104 21.5841 0.69104C25.4805 0.69104 28.6302 3.89608 28.6302 7.86108C28.6302 11.8261 25.4805 15.0311 21.5841 15.0311C17.6876 15.0311 14.538 11.8096 14.538 7.86108ZM21.5841 14.4198C24.3441 14.3868 25.302 10.8018 25.302 7.84456C25.302 4.87081 24.1005 1.25275 21.5841 1.25275C18.9377 1.23623 17.8662 4.88733 17.8662 7.84456C17.8662 10.8018 18.8241 14.4529 21.5841 14.4198Z" fill="#333333"/>
<path d="M1.5335 13.5277C1.5335 13.9242 1.07892 14.1225 0.656798 14.1225H0.332092V14.6346H7.50809C10.0408 14.6346 12.7358 13.4451 12.7683 10.8018C12.8008 7.77846 9.76479 7.24979 8.80691 7.16719C10.3006 6.91938 12.0702 5.64728 11.989 3.82998C11.8916 1.89705 9.87844 0.988403 7.97891 0.988403L0.413269 1.00492V1.51707H0.802915C1.09515 1.51707 1.54974 1.59967 1.54974 2.02922V13.5277H1.5335ZM4.60197 14.0729V7.53065H6.37162C8.36856 7.53065 9.40761 8.96796 9.48879 10.6035C9.60244 12.553 8.17373 14.0729 6.37162 14.0729H4.60197ZM4.60197 7.00198V1.51707H6.09562C7.55679 1.51707 8.7582 2.45876 8.82314 4.1604C8.88808 5.77944 7.68667 7.00198 6.17679 7.00198H4.60197Z" fill="#333333"/>
</svg>
