<svg width="73" height="21" viewBox="0 0 73 21" fill="none" xmlns="http://www.w3.org/2000/svg">
<path fill-rule="evenodd" clip-rule="evenodd" d="M50.516 9.05402C50.1463 9.05402 49.8588 8.84862 49.8588 8.47892C49.8588 7.90382 50.4339 7.16441 51.009 7.16441C51.3787 7.16441 51.543 7.49303 51.543 7.82166C51.584 8.43784 51.1733 9.05402 50.516 9.05402Z" fill="#333333"/>
<path fill-rule="evenodd" clip-rule="evenodd" d="M13.9151 17.3108C11.6558 18.9128 8.49272 20.8024 5.65831 20.8024C2.74173 20.8024 0.646729 18.8307 0.646729 15.9141C0.646729 14.3121 1.26291 12.7511 1.96125 11.3544C3.31683 8.64322 5.32967 6.17851 7.67115 4.24784C9.4786 2.76903 11.6558 1.61881 13.9562 1.0437C14.5723 0.879378 15.2296 0.797241 15.8458 0.797241C16.6673 0.797241 17.53 0.920497 18.2694 1.29016L19.3374 1.86527C19.5428 1.98853 19.7893 1.98853 19.9947 1.98853C20.7752 1.98853 21.4324 1.53667 22.0486 1.08477L22.2951 1.37235C20.8574 2.31713 20.2412 3.34409 19.6661 4.94616L19.4196 4.78183C19.5428 4.41217 19.625 4.08352 19.625 3.7138C19.625 1.90634 17.3657 1.0437 15.8047 1.0437C14.6545 1.0437 13.5043 1.41342 12.4773 1.90634C8.78026 3.7138 5.82262 7.00008 4.01517 10.6971C3.15252 12.4635 2.49526 14.4353 2.49526 16.4481C2.49526 18.7896 3.80978 20.3917 6.19232 20.3917C8.74707 20.3917 11.6509 18.491 13.7731 17.102L13.9562 16.9822C14.2848 16.2017 14.6545 15.5034 15.1885 14.8461C16.7906 12.7511 19.3374 10.615 22.0897 10.615C23.5275 10.615 24.2258 11.3133 24.2669 12.71L25.2117 11.1079H26.937L22.8702 18.2145L22.8251 18.3041C22.6706 18.6096 22.5005 18.9461 22.5005 19.2826C22.5005 19.6933 22.9113 19.9398 23.3221 19.9398C24.3022 19.9398 25.3571 19.1167 26.0941 18.5416L26.1976 18.461C28.1282 16.9822 29.8946 15.2568 31.0448 13.0797L32.1539 11.0669H34.0025L33.5095 11.9706C34.4133 11.4366 35.4813 10.9847 36.5493 10.9847C37.1655 10.9847 37.7406 11.2723 37.7406 11.9295C37.7406 12.4225 37.4941 12.7921 37.1244 13.1208C37.2066 13.1619 37.2477 13.2029 37.3298 13.2029C37.6403 13.2029 37.9141 13.0196 38.1513 12.8608L38.1925 12.8333C39.7535 11.8474 41.1912 10.4918 42.0949 8.9308L43.3684 6.75362H45.0937L42.9165 10.5739H45.4634L45.3401 10.9025H42.7933L38.5211 18.2967C38.3568 18.5842 38.1925 18.9128 38.1925 19.2415C38.1925 19.6523 38.6854 19.8577 39.0551 19.8577C39.8177 19.8577 40.5019 19.387 41.146 18.9439L41.1912 18.9128C42.3414 18.0913 43.4094 17.0643 44.3953 16.0784C45.1347 15.339 45.8331 14.5996 46.4492 13.778C46.7779 13.3262 47.0654 12.8743 47.353 12.4225L48.1335 11.149H49.8177L45.6277 18.5431C45.4634 18.7896 45.3812 19.1182 45.3812 19.4058C45.3812 19.7344 45.6277 20.022 45.9563 20.022C46.9422 20.022 48.0513 19.2004 48.7907 18.5431L51.8305 15.873C53.5148 13.9013 56.267 10.7793 59.1014 10.7793C60.0051 10.7793 61.0321 11.2312 61.0321 12.2581C61.0321 13.0387 60.4981 13.778 60.0051 14.3121C58.896 15.5034 57.2529 16.2017 55.733 16.6125C54.9525 16.8179 54.172 16.8589 53.3915 16.8589C53.145 17.434 52.8986 18.0091 52.8986 18.6253C52.8986 19.488 53.6791 20.2274 54.5417 20.2274C56.6367 20.2274 59.7176 18.0502 61.2375 16.8589C62.5109 15.832 63.7022 14.6407 64.7702 13.4083C64.8316 13.3347 64.894 13.261 64.9565 13.187C65.3124 12.7662 65.6759 12.3365 65.9205 11.8474L66.3312 11.1079H68.0565L66.8242 13.4905C68.1798 12.2581 69.8229 11.0258 71.7125 11.0258C72.3287 11.0258 72.8216 11.3955 72.8216 12.0528C72.8216 12.6279 72.2876 13.3262 71.6714 13.3262C71.3428 13.3262 71.0142 12.9975 71.0142 12.6689C71.0142 12.1349 71.5893 11.7652 72.0822 11.7652C72.1644 11.7652 72.2876 11.7652 72.3698 11.8063C72.2055 11.4776 71.959 11.3133 71.5893 11.3133C70.6856 11.3133 69.8229 11.7652 69.0835 12.176C67.3993 13.1619 66.1259 14.7229 65.14 16.366L62.6752 20.556H60.9089L64.8935 13.6959C64.0308 14.7229 63.1271 15.6676 62.1001 16.5303C60.9499 17.5162 59.7176 18.3789 58.4442 19.1593C57.1297 19.9398 55.6097 20.6792 54.0488 20.6792C52.5289 20.6792 51.1322 19.8166 51.1322 18.1735C51.1322 17.7159 51.2384 17.2937 51.3522 16.8413L51.3787 16.7357C51.2479 16.8562 51.1119 16.983 50.9711 17.1143C49.4322 18.5494 47.3245 20.5149 45.2169 20.5149C44.3543 20.5149 43.6559 20.2274 43.6559 19.2826C43.6559 18.7553 43.9566 18.2582 44.2236 17.8169C44.2686 17.7424 44.3127 17.6695 44.3543 17.5984L45.7509 15.1336C44.3543 16.6535 42.9165 18.1323 41.2323 19.2826C40.2875 19.9398 39.2194 20.556 38.0692 20.556C37.3298 20.556 36.5493 20.1041 36.5493 19.2826C36.5493 18.6791 36.8868 18.1062 37.1906 17.5906C37.2166 17.5464 37.2424 17.5025 37.2678 17.4592C37.2888 17.4231 37.3096 17.3873 37.3298 17.3519L40.9036 11.0669C40.2464 11.683 39.5891 12.2581 38.8908 12.7921C38.8397 12.8296 38.788 12.8679 38.7358 12.9066L38.7312 12.9101C38.1545 13.338 37.5062 13.8191 36.7547 13.8191C36.2618 13.8191 35.851 13.5316 35.851 12.9975C35.851 12.4635 36.3029 12.0528 36.8369 12.0528C37.0012 12.0528 37.1244 12.0938 37.2477 12.176C37.2887 12.0938 37.3298 11.9706 37.3298 11.8474C37.3298 11.4776 36.878 11.2723 36.5904 11.2723C35.6867 11.2723 34.7419 11.7241 34.0025 12.1349C33.2631 12.5867 32.7701 13.3262 32.3593 14.0656L28.6212 20.556H26.8137L29.4838 15.9141C27.7175 17.8037 24.8009 20.5971 22.0897 20.5971C21.3503 20.5971 20.693 20.2274 20.693 19.4469C20.693 18.9539 20.8984 18.5021 21.1038 18.0502C19.8304 19.4058 18.064 20.8024 16.0922 20.8024C14.8188 20.8024 13.7097 19.8987 13.7097 18.5842C13.6686 18.1323 13.7918 17.7216 13.9151 17.3108ZM23.9793 12.3814C23.9793 11.4366 23.2399 10.8615 22.3362 10.8615C21.3092 10.8615 20.4876 11.3544 19.7072 11.9295C18.1051 13.0797 16.7495 14.7229 15.8869 16.4892C15.5582 17.1465 15.2707 17.8037 15.2707 18.5842C15.2707 19.4058 15.7636 20.1863 16.6673 20.1863C18.7623 20.1863 20.9806 17.8448 22.2129 16.2427C22.9524 15.2158 23.9793 13.6548 23.9793 12.3814ZM54.0077 16.4892H53.5148L53.6303 16.2962C54.6634 14.5687 56.7577 11.0669 58.8139 11.0669C59.3068 11.0669 59.8408 11.2723 59.8408 11.8063C59.8408 12.7921 58.896 14.0245 58.1977 14.6818C57.1297 15.7088 55.5276 16.4892 54.0077 16.4892Z" fill="#333333"/>
</svg>
