<svg width="95" height="15" viewBox="0 0 95 15" fill="none" xmlns="http://www.w3.org/2000/svg">
<path fill-rule="evenodd" clip-rule="evenodd" d="M91.5433 0.598389H94.8382C94.4852 0.892583 94.2499 1.24562 94.2499 1.71633V13.1311C94.2499 13.6018 94.4852 13.9548 94.8382 14.249H91.5433C91.8963 13.9548 92.1317 13.6018 92.1317 13.1311V1.71633C92.1317 1.18678 91.8963 0.833744 91.5433 0.598389Z" fill="#333333"/>
<path fill-rule="evenodd" clip-rule="evenodd" d="M14.582 5.48282C14.0524 4.30604 13.464 3.1881 12.4638 2.30552C11.4047 1.42294 10.0514 0.834547 8.63924 0.834547C4.93239 0.834547 3.2849 4.18836 3.2849 7.48334C3.2849 10.6606 4.87355 13.8968 8.46272 13.8968C9.9337 13.8968 11.3458 13.2496 12.2284 12.1316V9.54271C12.2284 8.83664 11.9931 8.36593 11.4635 7.95405H15.288C14.8762 8.42477 14.6408 8.89548 14.6408 9.54271V12.1316C12.8756 13.7791 10.7574 14.7205 8.34505 14.7205C4.0498 14.7794 0.578308 11.6609 0.578308 7.30683C0.578308 3.01159 3.99097 0.0696411 8.16853 0.0696411C10.7574 0.0696411 12.8756 1.01106 14.582 2.95275V5.48282Z" fill="#333333"/>
<path fill-rule="evenodd" clip-rule="evenodd" d="M23.8785 0.598389H27.4677C26.997 0.951422 26.8205 1.36329 26.8205 1.95168V10.3068C26.8205 12.6015 29.5271 13.7195 31.4688 13.7195C33.4104 13.7195 35.9405 12.6015 35.9405 10.3656V1.95168C35.9405 1.36329 35.8228 1.01026 35.411 0.598389H37.3527C36.9408 1.01026 36.8231 1.42213 36.8231 1.95168V10.3656C36.8231 13.3664 33.2928 14.5432 30.8215 14.5432C28.2915 14.5432 24.5846 13.4253 24.5846 10.3068V1.95168C24.5258 1.36329 24.2904 0.951422 23.8785 0.598389Z" fill="#333333"/>
<path fill-rule="evenodd" clip-rule="evenodd" d="M59.7114 5.54074C59.2407 4.36397 58.6523 3.30487 57.7109 2.42228C56.6518 1.48086 55.3573 0.89247 53.9452 0.89247C50.2384 0.89247 48.3555 4.12861 48.3555 7.42359C48.3555 10.7774 50.2972 13.9547 53.9452 13.9547C56.6518 13.9547 58.5935 12.0719 59.7114 9.77715V12.2484C58.0639 13.8959 55.8869 14.7785 53.4745 14.7785C49.0616 14.7785 45.7666 11.9542 45.7666 7.42359C45.8254 2.95183 49.0027 0.0687256 53.298 0.0687256C55.7104 0.0687256 58.0051 0.89247 59.7114 2.53996V5.54074Z" fill="#333333"/>
<path fill-rule="evenodd" clip-rule="evenodd" d="M82.7762 5.54099C82.3055 4.36421 81.7171 3.30511 80.7757 2.42252C79.7166 1.4811 78.4222 0.892713 77.01 0.892713C73.3032 0.892713 71.4792 4.12885 71.4792 7.42383C71.4792 10.7776 73.4209 13.955 77.0689 13.955C79.7755 13.955 81.7171 12.0721 82.8351 9.77739V12.2486C81.1288 13.8961 79.0106 14.7787 76.5982 14.7787C72.1852 14.7787 68.8903 11.9544 68.8903 7.42383C68.8903 3.01091 72.0676 0.127808 76.3628 0.127808C78.7752 0.127808 81.0699 0.951552 82.7762 2.59904V5.54099Z" fill="#333333"/>
</svg>
