<?xml version="1.0" encoding="utf-8"?>
<!-- Generator: Adobe Illustrator 24.3.0, SVG Export Plug-In . SVG Version: 6.00 Build 0)  -->
<svg version="1.1"
	 id="svg2" xmlns:cc="http://creativecommons.org/ns#" xmlns:dc="http://purl.org/dc/elements/1.1/" xmlns:rdf="http://www.w3.org/1999/02/22-rdf-syntax-ns#" xmlns:svg="http://www.w3.org/2000/svg"
	 xmlns="http://www.w3.org/2000/svg" xmlns:xlink="http://www.w3.org/1999/xlink" x="0px" y="0px" viewBox="0 0 1333.3 1333.3"
	 style="enable-background:new 0 0 1333.3 1333.3;" xml:space="preserve">
<style type="text/css">
	.st0{stroke:#000000;stroke-width:33;stroke-miterlimit:10;}
</style>
<g>
	<path class="st0" d="M695,232.8c21.6-17.6,43.4-36.6,66.6-53.7c39.8-29.4,85.1-47.1,133.4-55.9c69.4-12.7,137.5-6.5,203.2,20.5
		c64.8,26.6,117.6,68.4,158.1,125.5c47.4,66.9,69.7,141.6,65.8,223.3c-2.2,45.8-19.2,87.5-41.2,127.2c-34.6,62.5-80,116.6-130,167
		c-57.1,57.6-114.5,114.8-170.7,173.4c-61.3,63.9-121.4,128.9-181.6,193.7c-26.6,28.6-52.3,58.2-78.4,87.3
		c-18.5,20.6-32.2,20.6-50.7,0.4c-52.4-57.6-104.4-115.6-157.6-172.4c-57.5-61.3-116.1-121.7-174.6-182.1
		c-40.4-41.7-82.3-81.9-121.9-124.2c-53.9-57.5-101.3-119.7-130.7-194C64.9,518.6,62.9,467,72.2,414.5
		c11.1-62.9,37.2-119.2,78.1-167.9c55.2-65.7,125.5-107.8,209.9-123.5c92.4-17.2,179.8-1,259.3,49.6
		C646.6,190,670.3,212.9,695,232.8z"/>
</g>
</svg>
