<?xml version="1.0" encoding="utf-8"?>
<!-- Generator: Adobe Illustrator 24.3.0, SVG Export Plug-In . SVG Version: 6.00 Build 0)  -->
<svg version="1.1"
	 id="svg2" xmlns:cc="http://creativecommons.org/ns#" xmlns:dc="http://purl.org/dc/elements/1.1/" xmlns:rdf="http://www.w3.org/1999/02/22-rdf-syntax-ns#" xmlns:svg="http://www.w3.org/2000/svg"
	 xmlns="http://www.w3.org/2000/svg" xmlns:xlink="http://www.w3.org/1999/xlink" x="0px" y="0px" viewBox="0 0 24 24"
	 style="enable-background:new 0 0 24 24;" xml:space="preserve">
<style type="text/css">
	.st0{fill:none;stroke:#000000;stroke-width:0.75;stroke-miterlimit:10;}
</style>
<g>
	<path class="st0" d="M12,2.7c0.3-0.3,0.5-0.6,0.8-0.9c0.5-0.5,1.1-0.8,1.7-1c0.9-0.2,1.7-0.1,2.6,0.4c0.8,0.5,1.5,1.2,2,2.2
		c0.6,1.1,0.9,2.4,0.8,3.8c0,0.8-0.2,1.5-0.5,2.2c-0.4,1.1-1,2-1.6,2.9c-0.7,1-1.4,2-2.2,3c-0.8,1.1-1.5,2.2-2.3,3.3
		c-0.3,0.5-0.7,1-1,1.5c-0.2,0.4-0.4,0.4-0.6,0c-0.7-1-1.3-2-2-3C9,16,8.2,15,7.5,13.9c-0.5-0.7-1-1.4-1.5-2.1
		c-0.7-1-1.3-2.1-1.7-3.3C4,7.6,4,6.7,4.1,5.8c0.1-1.1,0.5-2,1-2.9c0.7-1.1,1.6-1.9,2.7-2.1c1.2-0.3,2.3,0,3.3,0.9
		C11.4,2,11.7,2.4,12,2.7z"/>
</g>
</svg>
