<svg width="70" height="12" viewBox="0 0 70 12" fill="none" xmlns="http://www.w3.org/2000/svg">
<path fill-rule="evenodd" clip-rule="evenodd" d="M0.241455 1.01665L1.28539 2.14442V10.4407L0.515487 11.5296L5.26538 11.5425L4.40414 10.5444L4.31279 7.56293L8.89305 7.58885C10.3024 7.13515 11.7247 6.18886 11.803 4.27034C11.7769 2.41664 10.6025 1.23702 9.23232 0.990723L0.241455 1.01665ZM4.1562 1.54813V6.87589L7.67947 6.90182C8.47547 6.2796 9.08878 5.81293 9.06268 4.32219C9.04963 3.11664 8.78865 2.05368 7.60118 1.54813H4.1562Z" fill="#333333"/>
<path fill-rule="evenodd" clip-rule="evenodd" d="M13.9952 0.964623L15.0392 2.0924V10.3887L14.2693 11.4776L19.0192 11.4905L18.1579 10.4924L18.0666 7.5109H18.0796L22.9861 11.5294L27.0574 11.5035L23.3384 8.41831H20.2327L19.1366 7.52386L22.6338 7.53683C24.017 7.09609 25.4524 6.14979 25.5176 4.23128C25.4915 2.37758 24.3171 1.18499 22.947 0.95166L13.9952 0.964623ZM17.91 1.48314V6.8109L21.4333 6.83683C22.2293 6.21461 22.8426 5.74794 22.8165 4.25721C22.8034 3.05165 22.5424 1.98869 21.355 1.48314H17.91Z" fill="#333333"/>
<path fill-rule="evenodd" clip-rule="evenodd" d="M31.0114 0.95166H35.1088L40.4459 10.4405C40.6808 11.1794 41.3724 11.0887 41.8291 11.3998H36.6617L37.4316 11.1664L37.3794 10.4535L36.0483 8.40534L31.5072 8.43127L30.5416 10.4016C30.5155 10.622 30.2545 10.8035 30.4503 11.0757L30.8156 11.4127L28.5842 11.3609L29.5499 11.0757L33.2167 3.67387V3.16832L31.6769 1.21092L31.0114 0.95166ZM31.8074 7.77016L33.6864 4.34795L35.6438 7.74423L31.8074 7.77016Z" fill="#333333"/>
<path fill-rule="evenodd" clip-rule="evenodd" d="M58.7408 0.964722H62.8382L68.1753 10.4665C68.4102 11.2054 69.1018 11.1147 69.5585 11.4258H64.3911L65.161 11.1925L65.1088 10.4795L63.7778 8.44433L59.2367 8.47026L58.271 10.4406C58.2449 10.661 57.984 10.8425 58.1797 11.1147L58.5451 11.4517L56.3137 11.3999L57.2793 11.1147L60.9461 3.71286V3.20731L59.3933 1.22398L58.7408 0.964722ZM59.5368 7.78322L61.4159 4.36101L63.3733 7.75729L59.5368 7.78322Z" fill="#333333"/>
<path fill-rule="evenodd" clip-rule="evenodd" d="M43.2514 0.847961L50.559 0.88685C52.9078 1.41833 54.4085 2.7924 54.8652 5.19054L54.8521 7.07017C54.4215 9.20905 53.0122 10.6868 50.5459 11.4387L43.2253 11.4516V11.2313C44.3345 11.1535 44.4259 11.0239 44.4259 10.4016V1.85907C44.4128 1.3924 44.3215 1.09426 43.2384 1.06833L43.2514 0.847961ZM47.4011 1.57389L47.388 10.8165C48.3537 10.8165 49.1888 10.9072 49.6586 10.6739C50.7286 10.2072 51.2245 9.48127 51.2767 8.8072L51.2506 3.36277C51.2506 2.49425 50.2588 1.87203 49.6977 1.71648C49.2802 1.56092 48.4711 1.56092 47.4011 1.57389Z" fill="#333333"/>
</svg>
