<svg width="25" height="25" viewBox="0 0 25 25" fill="none" xmlns="http://www.w3.org/2000/svg">
<path d="M12.5 3.98364C9.15118 3.98364 4.80466 4.82271 4.80466 4.82271L4.79373 4.83521C3.26851 5.07913 2.09998 6.38974 2.09998 7.98364V12.7836V12.7852V17.5836V17.5852C2.10146 18.3464 2.37427 19.0822 2.86941 19.6604C3.36456 20.2386 4.0496 20.6213 4.80154 20.7399L4.80466 20.7446C4.80466 20.7446 9.15118 21.5852 12.5 21.5852C15.8488 21.5852 20.1953 20.7446 20.1953 20.7446L20.1968 20.743C20.9496 20.6247 21.6354 20.2417 22.131 19.6628C22.6265 19.0839 22.8992 18.3472 22.9 17.5852V17.5836V12.7852V12.7836V7.98364C22.8989 7.22215 22.6262 6.48601 22.131 5.90749C21.6359 5.32897 20.9506 4.946 20.1984 4.82739L20.1953 4.82271C20.1953 4.82271 15.8488 3.98364 12.5 3.98364ZM10.1 9.10239L16.5 12.7836L10.1 16.4649V9.10239Z" fill="#333333"/>
</svg>
